<?xml version="1.0" encoding="utf-8"?>
<!-- Generator: Adobe Illustrator 28.0.0, SVG Export Plug-In . SVG Version: 6.00 Build 0)  -->
<svg version="1.1" id="Layer_1" xmlns="http://www.w3.org/2000/svg" xmlns:xlink="http://www.w3.org/1999/xlink" x="0px" y="0px"
	 viewBox="0 0 450.6 130.5" style="enable-background:new 0 0 450.6 130.5;" xml:space="preserve">
<style type="text/css">
	
		.st0{clip-path:url(#SVGID_00000003800668664905172050000010266479401365018498_);fill:url(#SVGID_00000030469008145066378030000001615132046331518363_);}
	
		.st1{clip-path:url(#SVGID_00000003800668664905172050000010266479401365018498_);fill:url(#SVGID_00000177455081077337954640000003969257574061969049_);}
	.st2{fill:#A5A5A5;}
</style>
<g>
	<g>
		<defs>
			<path id="SVGID_1_" d="M67.5,30.9v39.3h27.6v-6.3H74.4v-33H67.5z M102.7,70.2h6.9V30.9h-6.9V70.2z M147.6,30.9v27.2l-21.1-27.2
				h-6.4v39.3h6.8v-28l21.7,28h5.8V30.9H147.6z M164.9,70.2h6.9V30.9h-6.9V70.2z M295.7,30.9v27.2l-21.1-27.2h-6.4v39.3h6.8v-28
				l21.7,28h5.8V30.9H295.7z M385.8,30.9L374,61.1l-11.9-30.2h-7.6l16.4,39.6h6.1l16.3-39.6H385.8z M240.8,38.9l6.8,15.7h-13.5
				L240.8,38.9z M237.7,30.6l-17.3,39.6h7.1l4-9.5h18.6l4,9.5h7.3l-17.3-39.6H237.7z M411.4,38.9l6.8,15.7h-13.5L411.4,38.9z
				 M408.3,30.6L391,70.2h7.1l4-9.5h18.6l4,9.5h6.9v-1l-16.9-38.6H408.3z M24.3,50.6v0.1c0,11.3,8.5,20.2,20,20.2
				c7.4,0,11.9-2.7,16-7l-4.4-4.5c-3.4,3.1-6.5,5.1-11.3,5.1c-7.5,0-13-6.2-13-13.9v-0.1c0-7.7,5.5-13.9,13-13.9c4.5,0,7.9,2,11,4.9
				l4.4-5.1c-3.8-3.6-8.1-6.1-15.4-6.1C32.7,30.2,24.3,39.4,24.3,50.6 M180.6,50.6v0.1c0,11.3,8.5,20.2,20,20.2c7.4,0,11.9-2.7,16-7
				l-4.4-4.5c-3.4,3.1-6.5,5.1-11.3,5.1c-7.5,0-13-6.2-13-13.9v-0.1c0-7.7,5.5-13.9,13-13.9c4.5,0,7.9,2,11,4.9l4.4-5.1
				c-3.8-3.6-8.1-6.1-15.4-6.1C189,30.2,180.6,39.4,180.6,50.6 M318.1,50.6v-0.1c0-7.6,5.4-13.9,13.3-13.9c7.8,0,13.4,6.3,13.4,14
				v0.1c0,7.6-5.5,13.8-13.3,13.8C323.6,64.5,318.1,58.2,318.1,50.6 M310.8,50.6v0.1c0,11.1,8.4,20.2,20.5,20.2
				c12.1,0,20.6-9.3,20.6-20.3v-0.1c0-11.1-8.4-20.2-20.5-20.2C319.4,30.2,310.8,39.5,310.8,50.6"/>
		</defs>
		<clipPath id="SVGID_00000139980357307423401250000014630291150928042175_">
			<use xlink:href="#SVGID_1_"  style="overflow:visible;"/>
		</clipPath>
		
			<linearGradient id="SVGID_00000127017054092424252370000013715706789421448113_" gradientUnits="userSpaceOnUse" x1="88.6667" y1="365.9924" x2="90.5259" y2="365.9924" gradientTransform="matrix(112.7054 -112.7054 -112.7054 -112.7054 31377.9082 51399.2422)">
			<stop  offset="0" style="stop-color:#8E4534"/>
			<stop  offset="4.454422e-02" style="stop-color:#98503D"/>
			<stop  offset="0.1221" style="stop-color:#B26C56"/>
			<stop  offset="0.2227" style="stop-color:#DD9A7D"/>
			<stop  offset="0.2786" style="stop-color:#F7B796"/>
			<stop  offset="0.2972" style="stop-color:#F4B394"/>
			<stop  offset="0.592" style="stop-color:#C57D6E"/>
			<stop  offset="1" style="stop-color:#A8604F"/>
		</linearGradient>
		
			<polygon style="clip-path:url(#SVGID_00000139980357307423401250000014630291150928042175_);fill:url(#SVGID_00000127017054092424252370000013715706789421448113_);" points="
			4,50.6 228,-173.4 451.9,50.6 228,274.5 		"/>
		
			<linearGradient id="SVGID_00000072960943929990904540000013526929773053574531_" gradientUnits="userSpaceOnUse" x1="-1882.2222" y1="-3149.4341" x2="-1461.139" y2="-3149.4341" gradientTransform="matrix(-1 0 0 -1 -1450.637 -3098.0168)">
			<stop  offset="0" style="stop-color:#B4B4B4"/>
			<stop  offset="0" style="stop-color:#858585"/>
			<stop  offset="0.2279" style="stop-color:#FFFFFF"/>
			<stop  offset="0.414" style="stop-color:#979797"/>
			<stop  offset="0.586" style="stop-color:#A4A4A4"/>
			<stop  offset="0.7721" style="stop-color:#7C7C7C"/>
			<stop  offset="1" style="stop-color:#ACACAC"/>
		</linearGradient>
		
			<path style="clip-path:url(#SVGID_00000139980357307423401250000014630291150928042175_);fill:url(#SVGID_00000072960943929990904540000013526929773053574531_);" d="
			M10.5,24.9c0-5.1,7.8-9.2,17.5-9.2h386.1c9.6,0,17.5,4.1,17.5,9.2v53c0,5.1-7.8,9.2-17.5,9.2H28c-9.6,0-17.5-4.1-17.5-9.2V24.9z"
			/>
	</g>
	<g>
		<path class="st2" d="M154.1,89.7h2.6V106h8.2v2.3h-10.7V89.7z"/>
		<path class="st2" d="M181.3,90.7c1.5,0.8,2.7,2,3.6,3.4c0.9,1.5,1.3,3.1,1.3,4.8c0,1.7-0.4,3.4-1.3,4.8c-0.9,1.5-2.1,2.6-3.6,3.5
			s-3.2,1.3-5,1.3c-1.8,0-3.5-0.4-5-1.3c-1.5-0.8-2.7-2-3.6-3.5s-1.3-3.1-1.3-4.8c0-1.7,0.4-3.3,1.3-4.8s2.1-2.6,3.6-3.4
			c1.5-0.8,3.2-1.3,5-1.3C178.1,89.5,179.8,89.9,181.3,90.7z M172.7,92.8c-1.1,0.6-2,1.5-2.7,2.6c-0.7,1.1-1,2.3-1,3.6
			c0,1.3,0.3,2.5,1,3.6c0.7,1.1,1.5,2,2.7,2.6c1.1,0.7,2.3,1,3.6,1c1.3,0,2.5-0.3,3.6-1c1.1-0.7,2-1.5,2.6-2.6c0.7-1.1,1-2.3,1-3.6
			c0-1.3-0.3-2.5-1-3.6c-0.7-1.1-1.5-2-2.6-2.6s-2.3-1-3.6-1C175.1,91.8,173.8,92.1,172.7,92.8z"/>
		<path class="st2" d="M203.2,89.7h2.5v18.7h-2.6l-10.7-14.5v14.5h-2.6V89.7h2.6l10.7,14.5V89.7z"/>
		<path class="st2" d="M224,99.2h2.3v6.9c-0.9,0.7-2.1,1.3-3.3,1.8c-1.3,0.4-2.5,0.7-3.8,0.7c-1.8,0-3.4-0.4-4.9-1.3
			c-1.5-0.8-2.7-2-3.5-3.5c-0.9-1.5-1.3-3.1-1.3-4.8c0-1.7,0.4-3.3,1.3-4.8s2.1-2.6,3.6-3.4s3.2-1.3,5-1.3c1.3,0,2.6,0.2,3.8,0.7
			c1.2,0.5,2.3,1.1,3.2,1.9l-1.5,1.9c-0.7-0.7-1.6-1.2-2.6-1.6c-1-0.4-2-0.6-3-0.6c-1.3,0-2.6,0.3-3.7,1c-1.1,0.6-2,1.5-2.7,2.6
			c-0.7,1.1-1,2.3-1,3.6c0,1.3,0.3,2.5,1,3.7c0.7,1.1,1.6,2,2.7,2.6c1.1,0.7,2.4,1,3.7,1c0.8,0,1.6-0.1,2.4-0.4
			c0.8-0.3,1.6-0.6,2.3-1.1V99.2z"/>
		<path class="st2" d="M231.2,89.7h13V92h-10.4v5.8h9.3v2.3h-9.3v6h10.7v2.3h-13.3V89.7z"/>
		<path class="st2" d="M246.1,89.7h2.8l6.2,15.9l6.2-15.9h2.7l-7.6,18.7h-2.7L246.1,89.7z"/>
		<path class="st2" d="M266.7,89.7h2.6v18.7h-2.6V89.7z"/>
		<path class="st2" d="M272.2,89.7h14.6V92h-6v16.4h-2.6V92h-6V89.7z"/>
		<path class="st2" d="M303.9,89.7l-7,12.3v6.4h-2.6v-6.3l-7.1-12.4h2.6l5.8,9.5l5.7-9.5H303.9z"/>
	</g>
</g>
</svg>
